# xmcd
#
# Track frame offsets:
#	150
#	19630
#	36853
#	57308
#	75868
#	95567
#	115276
#	141352
#	159679
#	177699
#	198220
#	217693
#	240718
#
# Disc length: 3505 seconds
#
# Revision: 0
# Processed by: cddbd v1.5.2PL0 Copyright (c) Steve Scherf et al.
# Submitted via: EasyCDDAExtractor 8.2.1.1
#
DISCID=ab0daf0d
DTITLE=Mary Chapin Carpenter - The Calling
DYEAR=2007
DGENRE=Country
TTITLE0=The Calling
TTITLE1=We're All Right
TTITLE2=Twilight
TTITLE3=It Must Have Happened
TTITLE4=On And On It Goes
TTITLE5=Your Life Story
TTITLE6=Houston
TTITLE7=Leaving Song
TTITLE8=On With The Song
TTITLE9=Closer And Closer Apart
TTITLE10=Here I Am
TTITLE11=Why Shouldn't We
TTITLE12=Bright Morning Star
EXTD=
EXTT0=
EXTT1=
EXTT2=
EXTT3=
EXTT4=
EXTT5=
EXTT6=
EXTT7=
EXTT8=
EXTT9=
EXTT10=
EXTT11=
EXTT12=
PLAYORDER=
